<svg width="177.000000" height="42.000000" viewBox="0 0 177 42" fill="none" xmlns="http://www.w3.org/2000/svg" xmlns:xlink="http://www.w3.org/1999/xlink">
	<desc>
			Created with Pixso.
	</desc>
	<defs>
		<clipPath id="clip299_4032">
			<rect id="books-stack-of-three 2" rx="-0.500000" width="41.000000" height="41.000000" transform="translate(0.500000 0.500000)" fill="white" fill-opacity="0"/>
		</clipPath>
	</defs>
	<path id="LIBRARY" d="M51.1 8.59L47.79 8.59L47.79 18.39L55.52 18.39L55.52 15.82L51.1 15.82L51.1 8.59ZM59.73 8.59L56.43 8.59L56.43 18.39L59.73 18.39L59.73 8.59ZM70.51 14.2Q70.04 13.59 69.17 13.26Q69.83 12.93 70.17 12.4Q70.18 12.39 70.19 12.38Q70.29 12.21 70.36 12.03Q70.53 11.62 70.53 11.15Q70.53 10.63 70.33 10.21Q70.09 9.68 69.53 9.29Q68.53 8.59 66.57 8.59L61.33 8.59L61.33 18.39L66.85 18.39Q68.86 18.39 69.93 17.68Q70.45 17.33 70.72 16.84Q70.99 16.34 70.99 15.68Q70.99 15.04 70.73 14.54Q70.64 14.36 70.51 14.2ZM75.46 15.92L76.35 15.92L78.02 18.39L84.88 18.39L85.54 16.68L89.26 16.68L89.92 18.39L93.33 18.39L89.05 8.59L85.8 8.59L81.53 18.36L79.49 15.36Q80.22 14.99 80.67 14.4Q80.77 14.26 80.86 14.12Q80.89 14.07 80.92 14.02Q81.34 13.27 81.34 12.28Q81.34 11.34 80.95 10.6Q80.88 10.46 80.79 10.32Q80.67 10.15 80.54 9.99Q80.03 9.39 79.24 9.04Q78.23 8.59 76.87 8.59L72.15 8.59L72.15 18.39L75.46 18.39L75.46 15.92ZM97.17 15.92L98.07 15.92L99.73 18.39L103.26 18.39L101.2 15.36Q101.93 14.99 102.38 14.4Q102.49 14.26 102.57 14.12Q102.61 14.07 102.63 14.02Q103.05 13.27 103.05 12.28Q103.05 11.34 102.67 10.6Q102.59 10.46 102.5 10.32Q102.39 10.15 102.25 9.99Q101.75 9.39 100.95 9.04Q99.94 8.59 98.59 8.59L93.87 8.59L93.87 18.39L97.17 18.39L97.17 15.92ZM109.98 18.39L109.98 14.83L113.68 8.59L110.49 8.59L108.47 11.98L106.47 8.59L102.98 8.59L106.68 14.79L106.68 18.39L109.98 18.39ZM64.58 12.35L64.58 10.9L66.12 10.9Q66.86 10.9 67.09 11.24Q67.2 11.4 67.2 11.63Q67.2 11.85 67.09 12.01Q66.86 12.35 66.12 12.35L64.58 12.35ZM77.81 11.59Q78.01 11.86 78.01 12.28Q78.01 12.7 77.81 12.98Q77.75 13.06 77.67 13.13Q77.33 13.43 76.66 13.43L75.46 13.43L75.46 11.13L76.66 11.13Q77.33 11.13 77.67 11.44Q77.75 11.51 77.81 11.59ZM99.52 11.59Q99.72 11.86 99.72 12.28Q99.72 12.7 99.52 12.98Q99.46 13.06 99.38 13.13Q99.05 13.43 98.37 13.43L97.17 13.43L97.17 11.13L98.37 11.13Q99.05 11.13 99.38 11.44Q99.46 11.51 99.52 11.59ZM87.4 11.84L88.35 14.3L86.45 14.3L87.4 11.84ZM67.54 15.73Q67.3 16.08 66.57 16.08L64.58 16.08L64.58 14.54L66.57 14.54Q67.3 14.54 67.54 14.88Q67.66 15.05 67.66 15.31Q67.66 15.56 67.54 15.73Z" fill="#720418" fill-opacity="1.000000" fill-rule="evenodd"/>
	<path id="Book store" d="M66.78 32.39L66.78 22.74L65.86 22.74L65.86 26.85Q65.56 26.4 65.16 26.1Q64.97 25.95 64.76 25.84Q64.71 25.82 64.65 25.79Q64.02 25.5 63.26 25.5Q62.5 25.5 61.85 25.77Q61.68 25.84 61.51 25.94Q61.18 26.12 60.9 26.38Q60.54 26.71 60.29 27.16Q60.26 27.22 60.23 27.27Q59.85 28.02 59.85 28.97Q59.85 29.89 60.22 30.64Q60.25 30.71 60.29 30.78Q60.54 31.22 60.89 31.55Q61.17 31.82 61.51 32.01Q61.68 32.11 61.87 32.18Q62.51 32.45 63.26 32.45Q64.05 32.45 64.69 32.14Q64.75 32.12 64.8 32.09Q65.04 31.96 65.26 31.78Q65.63 31.47 65.89 31.04L65.89 32.39L66.78 32.39ZM83.32 23.99Q83.45 24.05 83.61 24.05Q83.78 24.05 83.91 23.99Q84.01 23.94 84.09 23.86Q84.18 23.78 84.22 23.68Q84.29 23.54 84.29 23.38Q84.29 23.27 84.26 23.18Q84.21 23.04 84.09 22.93Q84.01 22.85 83.92 22.81Q83.78 22.74 83.61 22.74Q83.46 22.74 83.33 22.8Q83.22 22.85 83.13 22.94Q83.02 23.05 82.97 23.19Q82.94 23.29 82.94 23.39Q82.94 23.53 82.98 23.64Q83.03 23.76 83.13 23.86Q83.22 23.94 83.32 23.99ZM133.26 22.74L132.34 22.74L132.34 32.39L133.26 32.39L133.26 22.74ZM52.12 29.96L57.18 29.96L58.28 32.39L59.29 32.39L55.13 23.29L54.18 23.29L50.02 32.39L51.02 32.39L52.12 29.96ZM105.18 24.12Q104.19 23.29 102.45 23.29L99.04 23.29L99.04 32.39L100.01 32.39L100.01 29.52L102.45 29.52Q104.19 29.52 105.18 28.69Q105.51 28.42 105.73 28.07Q106.17 27.38 106.17 26.41Q106.17 25.44 105.73 24.75Q105.51 24.4 105.18 24.12ZM104.49 28.08Q103.78 28.67 102.42 28.67L100.01 28.67L100.01 24.12L102.42 24.12Q103.78 24.12 104.49 24.71Q104.68 24.87 104.82 25.06Q105.21 25.6 105.21 26.41Q105.21 27.17 104.85 27.68Q104.7 27.9 104.49 28.08ZM54.65 24.29L56.83 29.18L52.46 29.18L54.65 24.29ZM79.64 26.01Q78.95 25.5 77.88 25.5Q77.01 25.5 76.32 25.85Q76.29 25.87 76.26 25.88Q75.81 26.12 75.5 26.48Q75.32 26.69 75.18 26.94Q74.96 26.45 74.6 26.13Q74.43 25.98 74.23 25.86Q73.6 25.5 72.75 25.5Q71.9 25.5 71.25 25.84Q70.91 26.01 70.65 26.27Q70.41 26.5 70.24 26.8L70.24 25.55L69.35 25.55L69.35 32.39L70.27 32.39L70.27 28.8Q70.27 27.73 70.8 27.09Q70.84 27.04 70.89 26.99Q71.05 26.81 71.24 26.69Q71.78 26.33 72.56 26.33Q73.34 26.33 73.82 26.7Q73.93 26.79 74.03 26.89Q74.54 27.45 74.54 28.51L74.54 32.39L75.46 32.39L75.46 28.8Q75.46 27.72 75.99 27.08Q76.03 27.03 76.07 26.99Q76.22 26.83 76.39 26.71Q76.94 26.33 77.75 26.33Q78.49 26.33 78.97 26.68Q79.09 26.78 79.2 26.89Q79.71 27.45 79.71 28.51L79.71 32.39L80.64 32.39L80.64 28.42Q80.64 27.01 79.93 26.27Q79.92 26.25 79.9 26.24Q79.78 26.12 79.64 26.01ZM91.87 25.99Q91.17 25.5 90.13 25.5Q89.24 25.5 88.57 25.84Q88.17 26.05 87.88 26.35Q87.68 26.56 87.53 26.81L87.53 25.55L86.64 25.55L86.64 32.39L87.56 32.39L87.56 28.8Q87.56 27.79 88.05 27.16Q88.13 27.07 88.21 26.99Q88.34 26.85 88.5 26.74Q89.08 26.33 89.96 26.33Q90.8 26.33 91.32 26.74Q91.4 26.81 91.48 26.89Q91.48 26.89 91.48 26.9Q92.01 27.45 92.01 28.51L92.01 32.39L92.93 32.39L92.93 28.42Q92.93 27.09 92.27 26.35Q92.22 26.3 92.17 26.25Q92.03 26.1 91.87 25.99ZM112.43 26.16Q111.72 25.5 110.38 25.5Q109.61 25.5 108.9 25.72Q108.87 25.73 108.84 25.74Q108.12 25.98 107.6 26.42L108.02 27.11Q108.44 26.73 109.04 26.52Q109.26 26.44 109.49 26.39Q109.88 26.3 110.29 26.3Q111.24 26.3 111.73 26.77Q111.79 26.82 111.84 26.88Q112.23 27.33 112.23 28.11L112.23 28.53L110.06 28.53Q108.68 28.53 108.05 29.06Q107.78 29.28 107.63 29.57Q107.42 29.96 107.42 30.46Q107.42 30.95 107.61 31.33Q107.78 31.65 108.09 31.91Q108.77 32.45 109.91 32.45Q110.74 32.45 111.35 32.15Q111.81 31.92 112.1 31.56Q112.19 31.45 112.27 31.32L112.27 32.39L113.15 32.39L113.15 28.15Q113.15 26.95 112.56 26.29Q112.5 26.23 112.43 26.17L112.43 26.16ZM120.88 25.99Q120.19 25.5 119.14 25.5Q118.26 25.5 117.59 25.84Q117.19 26.05 116.89 26.35Q116.69 26.56 116.54 26.81L116.54 25.55L115.66 25.55L115.66 32.39L116.58 32.39L116.58 28.8Q116.58 27.79 117.07 27.16Q117.14 27.07 117.22 26.99Q117.36 26.85 117.52 26.74Q118.1 26.33 118.97 26.33Q119.82 26.33 120.33 26.74Q120.42 26.81 120.49 26.89L120.5 26.9Q121.03 27.45 121.03 28.51L121.03 32.39L121.95 32.39L121.95 28.42Q121.95 27.09 121.29 26.35Q121.24 26.3 121.19 26.25Q121.05 26.1 120.88 25.99ZM124.72 29.26L130.44 29.26L130.45 28.97Q130.45 27.97 130.04 27.2Q130.03 27.19 130.02 27.17Q129.77 26.71 129.41 26.37Q129.15 26.13 128.84 25.94Q128.68 25.85 128.51 25.78Q127.89 25.5 127.14 25.5Q126.41 25.5 125.8 25.76Q125.61 25.84 125.43 25.94Q125.13 26.11 124.89 26.34Q124.5 26.69 124.23 27.18Q124.19 27.25 124.16 27.32Q123.8 28.06 123.8 28.97Q123.8 29.8 124.11 30.49Q124.17 30.63 124.25 30.76Q124.46 31.12 124.74 31.41Q125.08 31.76 125.52 32Q125.53 32.01 125.55 32.02Q126.35 32.45 127.38 32.45Q128.2 32.45 128.89 32.17Q129.35 31.97 129.71 31.66Q129.88 31.51 130.02 31.33L129.5 30.74Q129.28 30.99 129 31.18Q128.81 31.31 128.58 31.41Q128.05 31.63 127.41 31.63Q126.55 31.63 125.92 31.26Q125.72 31.14 125.54 30.98Q125.27 30.74 125.09 30.45Q124.77 29.93 124.72 29.26ZM84.07 25.55L83.15 25.55L83.15 32.39L84.07 32.39L84.07 25.55ZM126.02 26.54Q126.52 26.29 127.14 26.29Q127.79 26.29 128.3 26.56Q128.57 26.7 128.81 26.92Q129 27.11 129.15 27.33Q129.5 27.85 129.57 28.57L124.72 28.57Q124.78 27.85 125.13 27.33Q125.28 27.11 125.48 26.92Q125.73 26.69 126.02 26.54ZM64.34 31.44Q63.88 31.63 63.33 31.63Q62.74 31.63 62.25 31.41Q62.13 31.36 62.02 31.3Q61.82 31.18 61.65 31.03Q61.33 30.76 61.11 30.36Q61.1 30.34 61.09 30.31Q60.78 29.72 60.78 28.97Q60.78 28.21 61.09 27.62Q61.1 27.6 61.11 27.58Q61.33 27.18 61.66 26.9Q61.83 26.75 62.02 26.64Q62.14 26.57 62.26 26.52Q62.75 26.3 63.33 26.3Q63.87 26.3 64.33 26.49Q64.48 26.55 64.62 26.64Q64.84 26.76 65.02 26.92Q65.33 27.19 65.54 27.58Q65.55 27.61 65.57 27.64Q65.87 28.23 65.87 28.97Q65.87 29.71 65.57 30.29Q65.55 30.33 65.54 30.36Q65.33 30.74 65.03 31.01Q64.84 31.18 64.62 31.3Q64.49 31.38 64.34 31.44ZM111.38 31.38Q110.83 31.72 110.06 31.72Q109.24 31.72 108.78 31.38Q108.58 31.23 108.47 31.03Q108.33 30.77 108.33 30.44Q108.33 30.04 108.51 29.77Q108.9 29.22 110.08 29.22L112.23 29.22L112.23 30.33Q112.02 30.84 111.66 31.17Q111.54 31.28 111.4 31.37Q111.39 31.37 111.38 31.38Z" fill="#241400" fill-opacity="1.000000" fill-rule="evenodd"/>
	<line id="Line 1" x1="48.000000" y1="20.892578" x2="175.000000" y2="20.892578" stroke="#000000" stroke-opacity="0.590000" stroke-width="1.000000"/>
	<rect id="books-stack-of-three 2" rx="-0.500000" width="41.000000" height="41.000000" transform="translate(0.500000 0.500000)" fill="#FFFFFF" fill-opacity="0"/>
	<g clip-path="url(#clip299_4032)">
		<path id="Vector" d="M39 14.9C38.83 13.62 38.81 11.42 39.99 10.68C40.01 10.67 40.03 10.65 40.05 10.64C41.02 10.33 41.69 9.89 41.16 9.3L26.86 5L3.7 8.21C3.7 8.21 1.05 8.59 1.29 12.71C1.41 14.96 2.12 16.06 2.73 16.6L0.83 17.17C0.3 17.76 0.98 18.19 1.94 18.5C1.96 18.52 1.98 18.54 2 18.55C3.19 19.29 3.16 21.49 2.99 22.77C-1.27 23.98 0.26 24.37 0.26 24.37L1.2 24.6C0.54 25.19 -0.11 26.32 0.01 28.45C0.25 32.57 2.43 32.85 2.43 32.85L17.58 37.78L40.45 32.24C40.45 32.24 41.98 31.85 37.72 30.64C37.55 29.36 37.53 27.16 38.72 26.42C38.74 26.41 38.75 26.39 38.77 26.37C39.74 26.06 40.41 25.63 39.89 25.04L38.89 24.74C39.55 24.34 40.55 23.3 40.71 20.58C40.81 18.72 40.33 17.62 39.76 16.98L41.73 16.5C41.73 16.5 43.26 16.11 39 14.9ZM19.87 14.85L23.71 14.06L36.71 11.38L38.65 10.99C38.03 12.12 38.06 13.67 38.16 14.66C38.18 14.89 38.21 15.1 38.23 15.25L36.11 15.78L19.7 19.86L19.87 14.85ZM3.34 18.86L5.28 19.25L17.76 21.82L18.85 22.04L22.12 22.72L22.29 27.73L5.42 23.54L3.76 23.12C3.79 22.97 3.81 22.76 3.83 22.53C3.94 21.54 3.96 19.99 3.34 18.86ZM2.59 12.52C2.57 11.42 2.76 10.63 3.16 10.22C3.41 9.97 3.7 9.91 3.91 9.91C4.02 9.91 4.09 9.93 4.1 9.93L14.08 13.18L19.05 14.8L18.89 19.85L4.93 15.94L4.19 15.73C4.16 15.73 4.12 15.72 4.1 15.72C4.04 15.71 2.66 15.59 2.59 12.52ZM17.62 35.59L2.91 31.47C2.89 31.46 2.85 31.46 2.82 31.46C2.76 31.45 1.38 31.33 1.31 28.25C1.29 27.16 1.49 26.37 1.88 25.96C2.13 25.7 2.43 25.65 2.63 25.65C2.74 25.65 2.82 25.67 2.82 25.67L17.78 30.54L17.62 35.59ZM36.88 30.4C36.9 30.63 36.93 30.83 36.96 30.99L18.43 35.6L18.59 30.58L22.55 29.77L23.14 29.91L25.33 29.2L35.44 27.12L37.37 26.72C36.75 27.86 36.78 29.41 36.88 30.4ZM37.9 23.59C37.87 23.59 37.83 23.59 37.8 23.6L36.41 23.99L23.1 27.72L22.94 22.67L27.3 21.25L37.87 17.8C37.87 17.8 38.43 17.68 38.84 18.09C39.23 18.5 39.43 19.29 39.4 20.38C39.33 23.46 37.95 23.58 37.9 23.59Z" fill="#720418" fill-opacity="1.000000" fill-rule="nonzero"/>
	</g>
</svg>
