<svg width="71.500000" height="71.499992" viewBox="0 0 71.5 71.5" fill="none" xmlns="http://www.w3.org/2000/svg" xmlns:xlink="http://www.w3.org/1999/xlink">
	<desc>
			Created with Pixso.
	</desc>
	<defs/>
	<path id="Vector" d="M21.01 0.21C24.82 0.03 26.03 0 35.75 0C45.46 0 46.67 0.04 50.48 0.21C54.29 0.38 56.89 0.99 59.16 1.87C61.55 2.77 63.71 4.18 65.5 6C67.32 7.78 68.72 9.94 69.62 12.33C70.5 14.6 71.11 17.2 71.28 21C71.46 24.82 71.5 26.04 71.5 35.75C71.5 45.46 71.45 46.67 71.28 50.48C71.11 54.29 70.5 56.89 69.62 59.16C68.72 61.55 67.31 63.71 65.5 65.5C63.71 67.32 61.55 68.72 59.16 69.62C56.89 70.5 54.29 71.11 50.49 71.28C46.67 71.46 45.46 71.5 35.75 71.5C26.03 71.5 24.82 71.45 21.01 71.28C17.2 71.11 14.6 70.5 12.33 69.62C9.94 68.72 7.78 67.31 5.99 65.5C4.18 63.71 2.77 61.55 1.87 59.16C0.99 56.89 0.39 54.29 0.21 50.49C0.03 46.67 0 45.45 0 35.75C0 26.03 0.04 24.82 0.21 21.01C0.38 17.2 0.99 14.6 1.87 12.33C2.77 9.94 4.18 7.78 6 5.99C7.78 4.18 9.94 2.77 12.33 1.87C14.6 0.99 17.2 0.38 21 0.21L21.01 0.21ZM50.19 6.64C46.42 6.47 45.29 6.44 35.75 6.44C26.2 6.44 25.07 6.47 21.3 6.64C17.81 6.8 15.92 7.39 14.66 7.88C12.99 8.53 11.8 9.3 10.55 10.55C9.36 11.7 8.45 13.11 7.88 14.66C7.39 15.92 6.8 17.81 6.64 21.3C6.47 25.07 6.44 26.2 6.44 35.75C6.44 45.29 6.47 46.42 6.64 50.19C6.8 53.68 7.39 55.57 7.88 56.83C8.45 58.38 9.36 59.79 10.55 60.94C11.7 62.13 13.11 63.04 14.66 63.61C15.92 64.1 17.81 64.69 21.3 64.85C25.07 65.02 26.2 65.05 35.75 65.05C45.29 65.05 46.42 65.02 50.19 64.85C53.68 64.69 55.57 64.1 56.83 63.61C58.5 62.96 59.69 62.19 60.94 60.94C62.13 59.79 63.04 58.38 63.61 56.83C64.1 55.57 64.69 53.68 64.85 50.19C65.02 46.42 65.05 45.29 65.05 35.75C65.05 26.2 65.02 25.07 64.85 21.3C64.69 17.81 64.1 15.92 63.61 14.66C62.96 12.99 62.19 11.8 60.94 10.55C59.79 9.36 58.38 8.45 56.83 7.88C55.57 7.39 53.68 6.8 50.19 6.64ZM31.18 46.77C33.73 47.83 36.57 47.97 39.21 47.17C41.86 46.37 44.14 44.68 45.68 42.38C47.21 40.09 47.9 37.33 47.63 34.58C47.35 31.83 46.14 29.26 44.18 27.31C42.93 26.06 41.42 25.11 39.76 24.52C38.1 23.92 36.33 23.7 34.58 23.88C32.82 24.05 31.13 24.61 29.61 25.52C28.1 26.42 26.81 27.65 25.83 29.12C24.85 30.59 24.21 32.25 23.95 34C23.69 35.74 23.82 37.52 24.33 39.21C24.84 40.9 25.72 42.45 26.91 43.76C28.09 45.06 29.55 46.09 31.18 46.77ZM22.75 22.75C24.46 21.05 26.48 19.69 28.71 18.77C30.94 17.84 33.33 17.37 35.75 17.37C38.16 17.37 40.55 17.84 42.78 18.77C45.01 19.69 47.03 21.05 48.74 22.75C50.44 24.46 51.8 26.48 52.72 28.71C53.65 30.94 54.12 33.33 54.12 35.75C54.12 38.16 53.65 40.55 52.72 42.78C51.8 45.01 50.44 47.03 48.74 48.74C45.29 52.18 40.62 54.12 35.75 54.12C30.87 54.12 26.2 52.18 22.75 48.74C19.31 45.29 17.37 40.62 17.37 35.75C17.37 30.87 19.31 26.2 22.75 22.75ZM58.2 20.11C58.62 19.71 58.96 19.23 59.19 18.7C59.43 18.16 59.55 17.59 59.56 17.01C59.57 16.43 59.46 15.85 59.24 15.31C59.02 14.77 58.7 14.28 58.29 13.87C57.88 13.46 57.39 13.14 56.85 12.92C56.31 12.7 55.73 12.59 55.15 12.6C54.57 12.61 54 12.73 53.46 12.97C52.93 13.2 52.45 13.54 52.05 13.96C51.28 14.79 50.85 15.88 50.87 17.01C50.89 18.14 51.34 19.22 52.14 20.02C52.94 20.82 54.02 21.27 55.15 21.29C56.28 21.31 57.37 20.88 58.2 20.11Z" fill="#241400" fill-opacity="1.000000" fill-rule="evenodd"/>
</svg>
